<svg width="196" height="62" viewBox="0 0 196 62" fill="none" xmlns="http://www.w3.org/2000/svg">
<path d="M0 8C0 3.58172 3.58172 0 8 0H188C192.418 0 196 3.58172 196 8V54C196 58.4183 192.418 62 188 62H8C3.58172 62 0 58.4183 0 54V8Z" fill="#8C30F5"/>
<path d="M48.7775 39.3C50.1708 39.3 51.3675 39 52.3675 38.4C53.3675 37.7933 54.1342 36.9633 54.6675 35.91C55.2075 34.8567 55.4775 33.65 55.4775 32.29C55.4775 32.25 55.4742 32.1267 55.4675 31.92C55.4608 31.7133 55.4508 31.5567 55.4375 31.45H50.3375V33.34H52.8775C52.6908 34.58 52.2575 35.51 51.5775 36.13C50.8975 36.7433 50.0142 37.0433 48.9275 37.03C47.4808 37.01 46.3942 36.5267 45.6675 35.58C44.9408 34.6333 44.5808 33.3733 44.5875 31.8C44.5942 30.7467 44.7575 29.8267 45.0775 29.04C45.3975 28.2533 45.8775 27.6433 46.5175 27.21C47.1575 26.7767 47.9608 26.5667 48.9275 26.58C49.8808 26.5867 50.6675 26.8433 51.2875 27.35C51.9142 27.8567 52.3642 28.5367 52.6375 29.39L55.0975 29C54.7308 27.52 54.0275 26.3667 52.9875 25.54C51.9542 24.7133 50.5508 24.3 48.7775 24.3C47.4975 24.3 46.3475 24.5967 45.3275 25.19C44.3142 25.7833 43.5108 26.64 42.9175 27.76C42.3308 28.88 42.0375 30.2267 42.0375 31.8C42.0375 33.4 42.3375 34.76 42.9375 35.88C43.5442 36.9933 44.3575 37.8433 45.3775 38.43C46.3975 39.01 47.5308 39.3 48.7775 39.3ZM62.3959 39.3C63.4359 39.3 64.3859 39.0333 65.2459 38.5C66.1126 37.96 66.7526 37.2 67.1659 36.22L64.7859 35.5C64.3059 36.5267 63.4626 37.04 62.2559 37.04C61.4359 37.04 60.7893 36.8033 60.3159 36.33C59.8426 35.85 59.5593 35.1633 59.4659 34.27H67.2859C67.3793 32.97 67.2359 31.8433 66.8559 30.89C66.4759 29.9367 65.8926 29.2 65.1059 28.68C64.3259 28.16 63.3759 27.9 62.2559 27.9C61.1959 27.9 60.2626 28.14 59.4559 28.62C58.6493 29.0933 58.0193 29.7667 57.5659 30.64C57.1126 31.5133 56.8859 32.54 56.8859 33.72C56.8859 34.8133 57.1159 35.78 57.5759 36.62C58.0426 37.46 58.6893 38.1167 59.5159 38.59C60.3426 39.0633 61.3026 39.3 62.3959 39.3ZM62.3559 30.01C63.1026 30.01 63.6759 30.2067 64.0759 30.6C64.4826 30.9867 64.7393 31.6033 64.8459 32.45H59.5259C59.8126 30.8233 60.7559 30.01 62.3559 30.01ZM75.8472 39V36.98C75.1739 37.08 74.5739 37.1067 74.0472 37.06C73.5205 37.0133 73.1372 36.79 72.8972 36.39C72.7705 36.1833 72.7005 35.9167 72.6872 35.59C72.6805 35.2567 72.6772 34.8767 72.6772 34.45V30.09H75.8472V28.2H72.6772V25.2H70.2772V28.2H68.3172V30.09H70.2772V34.59C70.2772 35.21 70.2839 35.7633 70.2972 36.25C70.3105 36.73 70.4405 37.2033 70.6872 37.67C70.9672 38.1833 71.3772 38.56 71.9172 38.8C72.4572 39.0333 73.0672 39.1567 73.7472 39.17C74.4339 39.19 75.1339 39.1333 75.8472 39ZM87.5034 39.3C88.4901 39.3 89.4134 39.1333 90.2734 38.8C91.1334 38.4667 91.8268 37.9667 92.3534 37.3C92.8868 36.6333 93.1534 35.8033 93.1534 34.81C93.1534 34.0967 93.0201 33.5067 92.7534 33.04C92.4934 32.5667 92.1568 32.1867 91.7434 31.9C91.3368 31.6133 90.9134 31.39 90.4734 31.23C90.0401 31.07 89.6468 30.9433 89.2934 30.85L86.7134 30.13C86.3934 30.0433 86.0734 29.9367 85.7534 29.81C85.4334 29.6767 85.1668 29.5 84.9534 29.28C84.7401 29.0533 84.6334 28.7633 84.6334 28.41C84.6334 28.0367 84.7568 27.71 85.0034 27.43C85.2568 27.15 85.5868 26.9333 85.9934 26.78C86.4068 26.6267 86.8534 26.5567 87.3334 26.57C88.0734 26.59 88.7401 26.8067 89.3334 27.22C89.9268 27.6333 90.3001 28.22 90.4534 28.98L93.0434 28.53C92.7234 27.1967 92.0668 26.1667 91.0734 25.44C90.0801 24.7067 88.8434 24.3333 87.3634 24.32C86.3901 24.3133 85.5034 24.47 84.7034 24.79C83.9101 25.1033 83.2768 25.5733 82.8034 26.2C82.3368 26.8267 82.1034 27.6033 82.1034 28.53C82.1034 29.1633 82.2068 29.6967 82.4134 30.13C82.6268 30.5567 82.8968 30.9067 83.2234 31.18C83.5568 31.4533 83.9068 31.67 84.2734 31.83C84.6468 31.99 84.9934 32.1167 85.3134 32.21L89.0334 33.31C90.1001 33.63 90.6334 34.1833 90.6334 34.97C90.6334 35.41 90.4901 35.7867 90.2034 36.1C89.9234 36.4067 89.5568 36.64 89.1034 36.8C88.6501 36.96 88.1668 37.04 87.6534 37.04C86.7868 37.04 86.0201 36.8067 85.3534 36.34C84.6934 35.8733 84.2568 35.2133 84.0434 34.36L81.5434 34.74C81.6968 35.68 82.0434 36.4933 82.5834 37.18C83.1301 37.86 83.8234 38.3833 84.6634 38.75C85.5101 39.1167 86.4568 39.3 87.5034 39.3ZM101.648 39V36.98C100.975 37.08 100.375 37.1067 99.848 37.06C99.3213 37.0133 98.938 36.79 98.698 36.39C98.5713 36.1833 98.5013 35.9167 98.488 35.59C98.4813 35.2567 98.478 34.8767 98.478 34.45V30.09H101.648V28.2H98.478V25.2H96.078V28.2H94.118V30.09H96.078V34.59C96.078 35.21 96.0846 35.7633 96.098 36.25C96.1113 36.73 96.2413 37.2033 96.488 37.67C96.768 38.1833 97.178 38.56 97.718 38.8C98.258 39.0333 98.868 39.1567 99.548 39.17C100.235 39.19 100.935 39.1333 101.648 39ZM106.99 39.3C107.85 39.3 108.58 39.16 109.18 38.88C109.787 38.5933 110.32 38.15 110.78 37.55V39H112.89V32.37C112.89 31.9033 112.87 31.4733 112.83 31.08C112.79 30.68 112.674 30.29 112.48 29.91C112.127 29.1967 111.584 28.6833 110.85 28.37C110.124 28.0567 109.28 27.9 108.32 27.9C107.054 27.9 106.044 28.1767 105.29 28.73C104.537 29.2833 104.027 30.0167 103.76 30.93L105.96 31.62C106.14 31.0667 106.457 30.6767 106.91 30.45C107.364 30.2233 107.834 30.11 108.32 30.11C109.054 30.11 109.594 30.26 109.94 30.56C110.287 30.8533 110.484 31.31 110.53 31.93C109.584 32.07 108.704 32.2067 107.89 32.34C107.084 32.4667 106.397 32.6233 105.83 32.81C104.977 33.1033 104.354 33.52 103.96 34.06C103.567 34.5933 103.37 35.2533 103.37 36.04C103.37 36.6333 103.507 37.1767 103.78 37.67C104.06 38.1633 104.47 38.56 105.01 38.86C105.55 39.1533 106.21 39.3 106.99 39.3ZM107.47 37.38C106.904 37.38 106.47 37.25 106.17 36.99C105.877 36.73 105.73 36.4033 105.73 36.01C105.73 35.6567 105.844 35.37 106.07 35.15C106.304 34.93 106.627 34.7433 107.04 34.59C107.42 34.4633 107.877 34.3533 108.41 34.26C108.944 34.16 109.64 34.0433 110.5 33.91C110.494 34.1633 110.477 34.4467 110.45 34.76C110.424 35.0667 110.36 35.3433 110.26 35.59C110.18 35.8367 110.024 36.1 109.79 36.38C109.564 36.66 109.257 36.8967 108.87 37.09C108.484 37.2833 108.017 37.38 107.47 37.38ZM115.494 39H117.914V33.51C117.914 32.8833 118.027 32.3267 118.254 31.84C118.487 31.3533 118.85 30.9767 119.344 30.71C119.677 30.5167 120.05 30.4033 120.464 30.37C120.877 30.33 121.247 30.3567 121.574 30.45V28.2C121.087 28.1267 120.587 28.1367 120.074 28.23C119.56 28.3167 119.104 28.4967 118.704 28.77C118.477 28.91 118.274 29.08 118.094 29.28C117.914 29.4733 117.757 29.69 117.624 29.93V28.2H115.494V39ZM129.812 39V36.98C129.139 37.08 128.539 37.1067 128.012 37.06C127.485 37.0133 127.102 36.79 126.862 36.39C126.735 36.1833 126.665 35.9167 126.652 35.59C126.645 35.2567 126.642 34.8767 126.642 34.45V30.09H129.812V28.2H126.642V25.2H124.242V28.2H122.282V30.09H124.242V34.59C124.242 35.21 124.249 35.7633 124.262 36.25C124.275 36.73 124.405 37.2033 124.652 37.67C124.932 38.1833 125.342 38.56 125.882 38.8C126.422 39.0333 127.032 39.1567 127.712 39.17C128.399 39.19 129.099 39.1333 129.812 39ZM136.498 39.3C137.538 39.3 138.488 39.0333 139.348 38.5C140.214 37.96 140.854 37.2 141.268 36.22L138.888 35.5C138.408 36.5267 137.564 37.04 136.358 37.04C135.538 37.04 134.891 36.8033 134.418 36.33C133.944 35.85 133.661 35.1633 133.568 34.27H141.388C141.481 32.97 141.338 31.8433 140.958 30.89C140.578 29.9367 139.994 29.2 139.208 28.68C138.428 28.16 137.478 27.9 136.358 27.9C135.298 27.9 134.364 28.14 133.558 28.62C132.751 29.0933 132.121 29.7667 131.668 30.64C131.214 31.5133 130.988 32.54 130.988 33.72C130.988 34.8133 131.218 35.78 131.678 36.62C132.144 37.46 132.791 38.1167 133.618 38.59C134.444 39.0633 135.404 39.3 136.498 39.3ZM136.458 30.01C137.204 30.01 137.778 30.2067 138.178 30.6C138.584 30.9867 138.841 31.6033 138.948 32.45H133.628C133.914 30.8233 134.858 30.01 136.458 30.01ZM147.949 39.3C148.589 39.3 149.165 39.2033 149.679 39.01C150.192 38.8167 150.642 38.5467 151.029 38.2V39H153.159V24.6H150.729V28.73C150.369 28.4633 149.965 28.26 149.519 28.12C149.072 27.9733 148.579 27.9 148.039 27.9C147.019 27.9 146.132 28.1467 145.379 28.64C144.632 29.1333 144.052 29.81 143.639 30.67C143.225 31.53 143.019 32.5067 143.019 33.6C143.019 34.68 143.222 35.65 143.629 36.51C144.035 37.37 144.609 38.05 145.349 38.55C146.089 39.05 146.955 39.3 147.949 39.3ZM148.319 37.14C147.692 37.14 147.175 36.9833 146.769 36.67C146.362 36.35 146.059 35.9233 145.859 35.39C145.665 34.8567 145.569 34.26 145.569 33.6C145.569 32.9467 145.669 32.3533 145.869 31.82C146.075 31.28 146.385 30.8533 146.799 30.54C147.219 30.22 147.752 30.06 148.399 30.06C149.319 30.06 149.985 30.3867 150.399 31.04C150.819 31.6933 151.029 32.5467 151.029 33.6C151.029 34.6467 150.819 35.5 150.399 36.16C149.985 36.8133 149.292 37.14 148.319 37.14Z" fill="white"/>
</svg>
