<svg width="196" height="62" fill="none" xmlns="http://www.w3.org/2000/svg"><path d="M0 8a8 8 0 018-8h180a8 8 0 018 8v46a8 8 0 01-8 8H8a8 8 0 01-8-8V8z" fill="#8C30F5"/><path d="M48.778 39.3c1.393 0 2.59-.3 3.59-.9a6.051 6.051 0 002.3-2.49c.54-1.053.81-2.26.81-3.62 0-.04-.004-.163-.01-.37a5.566 5.566 0 00-.03-.47h-5.1v1.89h2.54c-.187 1.24-.62 2.17-1.3 2.79-.68.613-1.564.913-2.65.9-1.447-.02-2.534-.503-3.26-1.45-.727-.947-1.087-2.207-1.08-3.78.006-1.053.17-1.973.49-2.76.32-.787.8-1.397 1.44-1.83.64-.433 1.443-.643 2.41-.63.953.007 1.74.263 2.36.77.626.507 1.076 1.187 1.35 2.04l2.46-.39c-.367-1.48-1.07-2.633-2.11-3.46-1.034-.827-2.437-1.24-4.21-1.24-1.28 0-2.43.297-3.45.89-1.014.593-1.817 1.45-2.41 2.57-.587 1.12-.88 2.467-.88 4.04 0 1.6.3 2.96.9 4.08.606 1.113 1.42 1.963 2.44 2.55 1.02.58 2.153.87 3.4.87zm13.618 0c1.04 0 1.99-.267 2.85-.8.867-.54 1.507-1.3 1.92-2.28l-2.38-.72c-.48 1.027-1.323 1.54-2.53 1.54-.82 0-1.467-.237-1.94-.71-.473-.48-.757-1.167-.85-2.06h7.82c.093-1.3-.05-2.427-.43-3.38-.38-.953-.963-1.69-1.75-2.21-.78-.52-1.73-.78-2.85-.78-1.06 0-1.993.24-2.8.72-.807.473-1.437 1.147-1.89 2.02-.453.873-.68 1.9-.68 3.08 0 1.093.23 2.06.69 2.9a5.056 5.056 0 001.94 1.97c.827.473 1.787.71 2.88.71zm-.04-9.29c.747 0 1.32.197 1.72.59.407.387.663 1.003.77 1.85h-5.32c.287-1.627 1.23-2.44 2.83-2.44zM75.847 39v-2.02c-.673.1-1.273.127-1.8.08-.526-.047-.91-.27-1.15-.67-.127-.207-.197-.473-.21-.8a55.16 55.16 0 01-.01-1.14v-4.36h3.17V28.2h-3.17v-3h-2.4v3h-1.96v1.89h1.96v4.5c0 .62.007 1.173.02 1.66.014.48.144.953.39 1.42.28.513.69.89 1.23 1.13.54.233 1.15.357 1.83.37a9.848 9.848 0 002.1-.17zm11.656.3c.987 0 1.91-.167 2.77-.5.86-.333 1.554-.833 2.08-1.5.534-.667.8-1.497.8-2.49 0-.713-.133-1.303-.4-1.77a3.285 3.285 0 00-1.01-1.14 5.407 5.407 0 00-1.27-.67c-.433-.16-.826-.287-1.18-.38l-2.58-.72a9.001 9.001 0 01-.96-.32 2.363 2.363 0 01-.8-.53c-.213-.227-.32-.517-.32-.87 0-.373.124-.7.37-.98.254-.28.584-.497.99-.65.414-.153.86-.223 1.34-.21.74.02 1.407.237 2 .65.594.413.967 1 1.12 1.76l2.59-.45c-.32-1.333-.976-2.363-1.97-3.09-.993-.733-2.23-1.107-3.71-1.12-.973-.007-1.86.15-2.66.47-.793.313-1.426.783-1.9 1.41-.466.627-.7 1.403-.7 2.33 0 .633.104 1.167.31 1.6.214.427.484.777.81 1.05.334.273.684.49 1.05.65.374.16.72.287 1.04.38l3.72 1.1c1.067.32 1.6.873 1.6 1.66 0 .44-.143.817-.43 1.13-.28.307-.646.54-1.1.7a4.32 4.32 0 01-1.45.24c-.866 0-1.633-.233-2.3-.7-.66-.467-1.096-1.127-1.31-1.98l-2.5.38c.154.94.5 1.753 1.04 2.44a5.384 5.384 0 002.08 1.57c.847.367 1.794.55 2.84.55zm14.145-.3v-2.02c-.673.1-1.273.127-1.8.08-.527-.047-.91-.27-1.15-.67-.127-.207-.197-.473-.21-.8a55.16 55.16 0 01-.01-1.14v-4.36h3.17V28.2h-3.17v-3h-2.4v3h-1.96v1.89h1.96v4.5c0 .62.007 1.173.02 1.66.013.48.143.953.39 1.42.28.513.69.89 1.23 1.13.54.233 1.15.357 1.83.37a9.845 9.845 0 002.1-.17zm5.342.3c.86 0 1.59-.14 2.19-.42.607-.287 1.14-.73 1.6-1.33V39h2.11v-6.63c0-.467-.02-.897-.06-1.29-.04-.4-.156-.79-.35-1.17a3.138 3.138 0 00-1.63-1.54c-.726-.313-1.57-.47-2.53-.47-1.266 0-2.276.277-3.03.83a4.073 4.073 0 00-1.53 2.2l2.2.69c.18-.553.497-.943.95-1.17a3.12 3.12 0 011.41-.34c.734 0 1.274.15 1.62.45.347.293.544.75.59 1.37-.946.14-1.826.277-2.64.41-.806.127-1.493.283-2.06.47-.853.293-1.476.71-1.87 1.25-.393.533-.59 1.193-.59 1.98 0 .593.137 1.137.41 1.63.28.493.69.89 1.23 1.19.54.293 1.2.44 1.98.44zm.48-1.92c-.566 0-1-.13-1.3-.39a1.255 1.255 0 01-.44-.98c0-.353.114-.64.34-.86.234-.22.557-.407.97-.56a9.65 9.65 0 011.37-.33c.534-.1 1.23-.217 2.09-.35a13.82 13.82 0 01-.05.85c-.026.307-.09.583-.19.83-.08.247-.236.51-.47.79a2.72 2.72 0 01-.92.71c-.386.193-.853.29-1.4.29zm8.024 1.62h2.42v-5.49c0-.627.113-1.183.34-1.67a2.476 2.476 0 011.09-1.13 2.618 2.618 0 011.12-.34c.413-.04.783-.013 1.11.08V28.2a4.549 4.549 0 00-1.5.03c-.514.087-.97.267-1.37.54-.227.14-.43.31-.61.51a3.28 3.28 0 00-.47.65V28.2h-2.13V39zm14.318 0v-2.02c-.673.1-1.273.127-1.8.08-.527-.047-.91-.27-1.15-.67-.127-.207-.197-.473-.21-.8a55.2 55.2 0 01-.01-1.14v-4.36h3.17V28.2h-3.17v-3h-2.4v3h-1.96v1.89h1.96v4.5c0 .62.007 1.173.02 1.66.013.48.143.953.39 1.42.28.513.69.89 1.23 1.13.54.233 1.15.357 1.83.37a9.845 9.845 0 002.1-.17zm6.686.3c1.04 0 1.99-.267 2.85-.8.866-.54 1.506-1.3 1.92-2.28l-2.38-.72c-.48 1.027-1.324 1.54-2.53 1.54-.82 0-1.467-.237-1.94-.71-.474-.48-.757-1.167-.85-2.06h7.82c.093-1.3-.05-2.427-.43-3.38-.38-.953-.964-1.69-1.75-2.21-.78-.52-1.73-.78-2.85-.78-1.06 0-1.994.24-2.8.72-.807.473-1.437 1.147-1.89 2.02-.454.873-.68 1.9-.68 3.08 0 1.093.23 2.06.69 2.9a5.049 5.049 0 001.94 1.97c.826.473 1.786.71 2.88.71zm-.04-9.29c.746 0 1.32.197 1.72.59.406.387.663 1.003.77 1.85h-5.32c.286-1.627 1.23-2.44 2.83-2.44zm11.491 9.29a4.89 4.89 0 001.73-.29 4.243 4.243 0 001.35-.81v.8h2.13V24.6h-2.43v4.13a4.059 4.059 0 00-1.21-.61 4.724 4.724 0 00-1.48-.22c-1.02 0-1.907.247-2.66.74-.747.493-1.327 1.17-1.74 2.03-.414.86-.62 1.837-.62 2.93 0 1.08.203 2.05.61 2.91.406.86.98 1.54 1.72 2.04s1.606.75 2.6.75zm.37-2.16c-.627 0-1.144-.157-1.55-.47-.407-.32-.71-.747-.91-1.28-.194-.533-.29-1.13-.29-1.79 0-.653.1-1.247.3-1.78.206-.54.516-.967.93-1.28.42-.32.953-.48 1.6-.48.92 0 1.586.327 2 .98.42.653.63 1.507.63 2.56 0 1.047-.21 1.9-.63 2.56-.414.653-1.107.98-2.08.98z" fill="#fff"/></svg>